<svg width="125" height="142" viewBox="0 0 125 142" fill="none" xmlns="http://www.w3.org/2000/svg">
<g clip-path="url(#clip0)">
<path d="M107.266 88.0822V52.3271C107.266 27.6424 87.256 7.63306 62.5715 7.63306C37.887 7.63306 17.8777 27.6424 17.8777 52.3271V88.0822L0 123.837H40.676C42.7453 134.036 51.7601 141.715 62.5715 141.715C73.3829 141.715 82.3977 134.036 84.467 123.837H125.143L107.266 88.0822ZM62.5715 132.776C56.7434 132.776 51.8317 129.035 49.9856 123.837H75.1617C73.3115 129.035 68.3996 132.776 62.5715 132.776ZM13.4083 114.898L26.8164 88.0822V52.3271C26.8164 32.5813 42.8257 16.572 62.5715 16.572C82.3171 16.572 98.3266 32.5813 98.3266 52.3271V88.0822L111.735 114.899H13.4083V114.898Z" fill="black"/>
<circle cx="98.643" cy="24.5" r="24.5" fill="#FF0000"/>
<path d="M92.6972 24.2373L93.8896 12.5391H105.91V15.2944H96.4194L95.7104 21.6914C96.8598 21.0146 98.165 20.6763 99.6259 20.6763C101.764 20.6763 103.461 21.3853 104.718 22.8032C105.975 24.2104 106.603 26.1172 106.603 28.5234C106.603 30.9404 105.948 32.8472 104.637 34.2437C103.337 35.6294 101.517 36.3223 99.1747 36.3223C97.1015 36.3223 95.4096 35.7476 94.0991 34.5981C92.7885 33.4487 92.0419 31.8589 91.8593 29.8286H94.6791C94.8618 31.1714 95.3398 32.1865 96.1132 32.874C96.8867 33.5508 97.9072 33.8892 99.1747 33.8892C100.56 33.8892 101.645 33.4165 102.43 32.4712C103.225 31.5259 103.622 30.2207 103.622 28.5557C103.622 26.9873 103.192 25.7305 102.333 24.7852C101.484 23.8291 100.351 23.3511 98.933 23.3511C97.6332 23.3511 96.6127 23.6357 95.8715 24.2051L95.082 24.8496L92.6972 24.2373Z" fill="white"/>
</g>
<defs>
<clipPath id="clip0">
<rect width="125" height="142" fill="white"/>
</clipPath>
</defs>
</svg>
